{"glyphs":{"0":{"ha":894,"x_min":0,"x_max":0,"o":"m 447 -14 b 828 458 703 -14 828 146 b 447 931 828 771 703 931 b 67 458 192 931 67 771 b 447 -14 67 146 192 -14 z m 447 172 b 303 458 346 172 303 253 b 447 744 303 664 346 744 b 592 458 549 744 592 664 b 447 172 592 253 549 172 z "},"1":{"ha":610,"x_min":0,"x_max":0,"o":"m 317 917 b 38 763 271 849 132 774 l 60 565 b 276 682 139 579 214 625 l 276 0 l 507 0 l 507 917 z "},"2":{"ha":828,"x_min":0,"x_max":0,"o":"m 83 0 l 771 0 l 771 182 l 556 182 b 371 176 497 182 417 179 l 371 178 b 760 636 619 321 760 457 b 414 931 760 779 657 931 b 54 618 208 931 58 821 l 258 556 b 399 743 261 678 311 743 b 522 619 481 743 522 690 b 83 153 522 490 397 349 z "},"3":{"ha":824,"x_min":0,"x_max":0,"o":"m 415 931 b 64 693 238 931 96 864 l 274 622 b 401 746 282 710 331 746 b 510 638 471 746 511 708 b 382 532 510 567 469 532 l 342 532 l 342 381 l 393 381 b 529 282 486 381 528 353 b 401 171 531 211 482 171 b 260 307 319 171 269 208 l 43 214 b 404 -14 94 53 211 -14 b 760 250 611 -14 760 92 b 569 458 760 413 633 458 l 569 463 b 742 674 622 463 742 519 b 415 931 742 829 624 931 z "},"4":{"ha":897,"x_min":0,"x_max":0,"o":"m 858 365 l 718 365 l 718 917 l 439 917 l 46 314 l 46 201 l 507 201 l 507 0 l 718 0 l 718 201 l 858 201 z m 429 610 b 510 760 458 656 490 711 l 513 760 l 507 610 l 507 365 l 268 365 z "},"5":{"ha":810,"x_min":0,"x_max":0,"o":"m 469 592 b 281 526 388 592 318 568 l 279 526 b 286 560 281 531 283 542 l 307 732 l 706 732 l 706 917 l 133 917 l 75 399 l 256 372 b 401 426 288 410 339 426 b 542 297 494 426 540 379 b 401 167 542 211 486 167 b 251 289 303 167 268 213 l 42 169 b 400 -14 122 36 238 -14 b 757 314 596 -14 757 89 b 469 592 757 475 650 592 z "},"6":{"ha":856,"x_min":0,"x_max":0,"o":"m 472 931 b 69 458 243 931 69 783 b 451 -14 69 150 207 -14 b 804 286 675 -14 804 103 b 507 571 804 460 678 571 b 285 450 400 571 317 529 l 282 450 l 282 472 b 457 742 282 640 356 742 b 596 636 533 742 578 701 l 792 728 b 472 931 740 876 619 931 z m 456 410 b 586 288 539 410 586 365 b 456 165 586 210 539 165 b 325 288 375 165 325 213 b 456 410 325 363 375 410 z "},"7":{"ha":853,"x_min":0,"x_max":0,"o":"m 58 917 l 58 729 l 579 729 b 276 0 368 513 276 276 l 513 0 b 813 747 513 282 583 525 l 813 917 z "},"8":{"ha":871,"x_min":0,"x_max":0,"o":"m 435 928 b 92 671 224 928 92 831 b 238 469 92 575 146 504 l 238 468 b 63 243 126 432 63 356 b 435 -14 63 85 204 -14 b 808 243 668 -14 808 85 b 633 468 808 357 743 432 l 633 469 b 779 671 726 504 779 576 b 435 928 779 831 647 928 z m 435 754 b 557 649 510 754 557 715 b 435 543 557 583 510 543 b 314 649 361 543 314 583 b 435 754 314 715 360 754 z m 435 160 b 294 274 347 160 294 203 b 435 388 294 346 349 388 b 576 274 524 388 576 346 b 435 160 576 203 524 160 z "},"9":{"ha":854,"x_min":0,"x_max":0,"o":"m 414 931 b 57 619 188 931 57 814 b 354 328 57 442 190 328 b 574 449 454 328 549 368 l 578 449 l 578 426 b 408 167 578 260 525 167 b 282 271 328 167 297 207 l 68 186 b 404 -14 125 47 238 -14 b 793 453 646 -14 793 125 b 414 931 793 767 657 931 z m 407 743 b 538 621 489 743 538 696 b 407 499 538 546 489 499 b 276 621 324 499 276 543 b 407 743 276 699 324 743 z "}," ":{"ha":397,"x_min":0,"x_max":0,"o":""},"A":{"ha":940,"x_min":0,"x_max":0,"o":"m 689 0 l 935 0 l 614 917 l 328 917 l 6 0 l 246 0 l 310 207 l 626 207 z m 360 369 l 429 590 l 467 733 l 469 733 l 510 589 l 576 369 z "},"Á":{"ha":940,"x_min":0,"x_max":0,"o":"m 671 1225 l 447 1225 l 371 1004 l 543 1004 z m 689 0 l 935 0 l 614 917 l 328 917 l 6 0 l 246 0 l 310 207 l 626 207 z m 360 369 l 429 590 l 467 733 l 469 733 l 510 589 l 576 369 z "},"Ă":{"ha":940,"x_min":0,"x_max":0,"o":"m 469 993 b 704 1219 615 993 704 1079 l 551 1219 b 469 1125 551 1163 521 1125 b 388 1219 418 1125 388 1163 l 235 1219 b 469 993 235 1079 324 993 z m 689 0 l 935 0 l 614 917 l 328 917 l 6 0 l 246 0 l 310 207 l 626 207 z m 360 369 l 429 590 l 467 733 l 469 733 l 510 589 l 576 369 z "},"Â":{"ha":940,"x_min":0,"x_max":0,"o":"m 469 1121 l 563 999 l 738 999 l 583 1231 l 356 1231 l 201 999 l 376 999 z m 689 0 l 935 0 l 614 917 l 328 917 l 6 0 l 246 0 l 310 207 l 626 207 z m 360 369 l 429 590 l 467 733 l 469 733 l 510 589 l 576 369 z "},"Ä":{"ha":940,"x_min":0,"x_max":0,"o":"m 315 994 b 435 1101 390 994 435 1035 b 315 1208 435 1168 390 1208 b 199 1101 243 1208 199 1168 b 315 994 199 1035 243 994 z m 621 994 b 740 1101 696 994 740 1035 b 621 1208 740 1168 696 1208 b 504 1101 549 1208 504 1168 b 621 994 504 1035 549 994 z m 689 0 l 935 0 l 614 917 l 328 917 l 6 0 l 246 0 l 310 207 l 626 207 z m 360 369 l 429 590 l 467 733 l 469 733 l 510 589 l 576 369 z "},"À":{"ha":940,"x_min":0,"x_max":0,"o":"m 547 1004 l 471 1225 l 247 1225 l 375 1004 z m 689 0 l 935 0 l 614 917 l 328 917 l 6 0 l 246 0 l 310 207 l 626 207 z m 360 369 l 429 590 l 467 733 l 469 733 l 510 589 l 576 369 z "},"Ā":{"ha":940,"x_min":0,"x_max":0,"o":"m 728 1158 l 211 1158 l 211 1013 l 728 1013 z m 689 0 l 935 0 l 614 917 l 328 917 l 6 0 l 246 0 l 310 207 l 626 207 z m 360 369 l 429 590 l 467 733 l 469 733 l 510 589 l 576 369 z "},"Ą":{"ha":940,"x_min":0,"x_max":0,"o":"m 913 -153 b 849 -167 896 -164 871 -167 b 772 -106 801 -167 772 -144 b 935 0 772 -58 808 -22 l 614 917 l 328 917 l 6 0 l 246 0 l 310 207 l 626 207 l 689 0 l 696 0 b 608 -142 639 -32 608 -79 b 800 -299 608 -249 692 -299 b 944 -267 858 -299 907 -290 z m 360 369 l 429 590 l 467 733 l 469 733 l 510 589 l 576 369 z "},"Å":{"ha":940,"x_min":0,"x_max":0,"o":"m 689 0 l 935 0 l 615 886 b 679 1017 656 915 679 960 b 471 1196 679 1124 601 1196 b 263 1017 342 1196 263 1124 b 325 886 263 958 285 915 l 6 0 l 246 0 l 310 207 l 626 207 z m 471 1086 b 551 1008 521 1086 551 1056 b 471 931 551 961 521 931 b 390 1008 421 931 390 961 b 471 1086 390 1056 421 1086 z m 360 369 l 429 590 l 465 733 l 471 733 l 510 589 l 576 369 z "},"Ã":{"ha":940,"x_min":0,"x_max":0,"o":"m 379 1078 b 561 999 435 1078 454 999 b 744 1219 675 999 739 1071 l 611 1219 b 558 1142 606 1168 590 1142 b 378 1221 506 1142 485 1221 b 194 1000 263 1221 200 1149 l 328 1000 b 379 1078 333 1051 349 1078 z m 689 0 l 935 0 l 614 917 l 328 917 l 6 0 l 246 0 l 310 207 l 626 207 z m 360 369 l 429 590 l 467 733 l 469 733 l 510 589 l 576 369 z "},"Æ":{"ha":1283,"x_min":0,"x_max":0,"o":"m 807 176 l 807 376 l 1125 376 l 1125 543 l 807 543 l 807 740 l 1222 740 l 1222 917 l 388 917 l -6 0 l 235 0 l 338 272 l 585 272 l 585 0 l 1242 0 l 1242 176 z m 397 428 l 518 747 l 585 747 l 585 428 z "},"B":{"ha":950,"x_min":0,"x_max":0,"o":"m 101 0 l 568 0 b 901 247 789 0 901 89 b 692 463 901 358 832 443 l 692 464 b 878 669 817 483 878 565 b 547 917 878 829 774 915 l 101 917 z m 332 542 l 332 742 l 504 742 b 633 642 590 742 633 708 b 504 542 633 575 590 542 z m 332 168 l 332 371 l 528 371 b 657 271 614 371 657 335 b 528 168 657 204 614 168 z "},"C":{"ha":946,"x_min":0,"x_max":0,"o":"m 914 263 l 697 324 b 515 174 675 221 618 174 b 307 458 381 174 307 272 b 519 743 307 646 386 743 b 693 593 614 743 667 707 l 903 678 b 511 931 857 851 703 931 b 63 458 235 931 63 754 b 513 -14 63 163 233 -14 b 914 263 707 -14 860 71 z "},"Ć":{"ha":946,"x_min":0,"x_max":0,"o":"m 481 1225 l 404 1004 l 576 1004 l 704 1225 z m 914 263 l 697 324 b 515 174 675 221 618 174 b 307 458 381 174 307 272 b 519 743 307 646 386 743 b 693 593 614 743 667 707 l 903 678 b 511 931 857 851 703 931 b 63 458 235 931 63 754 b 513 -14 63 163 233 -14 b 914 263 707 -14 860 71 z "},"Č":{"ha":946,"x_min":0,"x_max":0,"o":"m 767 1233 l 592 1233 l 499 1111 l 406 1233 l 231 1233 l 385 1001 l 613 1001 z m 914 263 l 697 324 b 515 174 675 221 618 174 b 307 458 381 174 307 272 b 519 743 307 646 386 743 b 693 593 614 743 667 707 l 903 678 b 511 931 857 851 703 931 b 63 458 235 931 63 754 b 513 -14 63 163 233 -14 b 914 263 707 -14 860 71 z "},"Ç":{"ha":946,"x_min":0,"x_max":0,"o":"m 914 263 l 697 324 b 515 174 675 221 618 174 b 307 458 381 174 307 272 b 519 743 307 646 386 743 b 693 593 614 743 667 707 l 903 678 b 511 931 857 851 703 931 b 63 458 235 931 63 754 b 454 -11 63 183 210 11 b 553 -104 532 -36 553 -65 b 476 -172 553 -147 521 -172 b 376 -133 433 -172 399 -156 l 322 -243 b 494 -299 357 -275 408 -299 b 693 -135 610 -299 693 -244 b 619 -4 693 -85 668 -39 b 914 263 763 22 869 107 z "},"D":{"ha":997,"x_min":0,"x_max":0,"o":"m 490 917 l 101 917 l 101 0 l 490 0 b 935 458 778 0 935 165 b 490 917 935 751 778 917 z m 467 181 l 340 181 l 340 736 l 467 736 b 690 458 622 736 690 642 b 467 181 690 275 622 181 z "},"Ð":{"ha":1029,"x_min":0,"x_max":0,"o":"m 522 917 l 133 917 l 133 538 l 18 538 l 18 379 l 133 379 l 133 0 l 522 0 b 967 458 810 0 967 165 b 522 917 967 751 810 917 z m 499 181 l 372 181 l 372 379 l 554 379 l 554 538 l 372 538 l 372 736 l 499 736 b 722 458 654 736 722 642 b 499 181 722 275 654 181 z "},"Ď":{"ha":997,"x_min":0,"x_max":0,"o":"m 565 1001 l 719 1233 l 544 1233 l 451 1111 l 358 1233 l 183 1233 l 338 1001 z m 490 917 l 101 917 l 101 0 l 490 0 b 935 458 778 0 935 165 b 490 917 935 751 778 917 z m 467 181 l 340 181 l 340 736 l 467 736 b 690 458 622 736 690 642 b 467 181 690 275 622 181 z "},"Đ":{"ha":1029,"x_min":0,"x_max":0,"o":"m 522 917 l 133 917 l 133 538 l 18 538 l 18 379 l 133 379 l 133 0 l 522 0 b 968 458 810 0 968 165 b 522 917 968 751 810 917 z m 499 181 l 372 181 l 372 379 l 554 379 l 554 538 l 372 538 l 372 736 l 499 736 b 722 458 654 736 722 642 b 499 181 722 275 654 181 z "},"E":{"ha":876,"x_min":0,"x_max":0,"o":"m 340 185 l 340 372 l 718 372 l 718 546 l 340 546 l 340 732 l 815 732 l 815 917 l 101 917 l 101 0 l 833 0 l 833 185 z "},"É":{"ha":876,"x_min":0,"x_max":0,"o":"m 650 1225 l 426 1225 l 350 1004 l 522 1004 z m 340 185 l 340 372 l 718 372 l 718 546 l 340 546 l 340 732 l 815 732 l 815 917 l 101 917 l 101 0 l 833 0 l 833 185 z "},"Ě":{"ha":876,"x_min":0,"x_max":0,"o":"m 558 1001 l 713 1233 l 538 1233 l 444 1111 l 351 1233 l 176 1233 l 331 1001 z m 340 185 l 340 372 l 718 372 l 718 546 l 340 546 l 340 732 l 815 732 l 815 917 l 101 917 l 101 0 l 833 0 l 833 185 z "},"Ê":{"ha":876,"x_min":0,"x_max":0,"o":"m 449 1121 l 542 999 l 717 999 l 563 1231 l 335 1231 l 181 999 l 356 999 z m 340 185 l 340 372 l 718 372 l 718 546 l 340 546 l 340 732 l 815 732 l 815 917 l 101 917 l 101 0 l 833 0 l 833 185 z "},"Ë":{"ha":876,"x_min":0,"x_max":0,"o":"m 294 994 b 414 1101 369 994 414 1035 b 294 1208 414 1168 369 1208 b 178 1101 222 1208 178 1168 b 294 994 178 1035 222 994 z m 600 994 b 719 1101 675 994 719 1035 b 600 1208 719 1168 675 1208 b 483 1101 528 1208 483 1168 b 600 994 483 1035 528 994 z m 340 185 l 340 372 l 718 372 l 718 546 l 340 546 l 340 732 l 815 732 l 815 917 l 101 917 l 101 0 l 833 0 l 833 185 z "},"Ė":{"ha":876,"x_min":0,"x_max":0,"o":"m 449 1001 b 578 1114 533 1001 578 1040 b 449 1225 578 1186 533 1225 b 322 1114 367 1225 322 1186 b 449 1001 322 1040 367 1001 z m 340 185 l 340 372 l 718 372 l 718 546 l 340 546 l 340 732 l 815 732 l 815 917 l 101 917 l 101 0 l 833 0 l 833 185 z "},"È":{"ha":876,"x_min":0,"x_max":0,"o":"m 561 1004 l 485 1225 l 261 1225 l 389 1004 z m 340 185 l 340 372 l 718 372 l 718 546 l 340 546 l 340 732 l 815 732 l 815 917 l 101 917 l 101 0 l 833 0 l 833 185 z "},"Ē":{"ha":876,"x_min":0,"x_max":0,"o":"m 707 1158 l 190 1158 l 190 1013 l 707 1013 z m 340 185 l 340 372 l 718 372 l 718 546 l 340 546 l 340 732 l 815 732 l 815 917 l 101 917 l 101 0 l 833 0 l 833 185 z "},"Ę":{"ha":876,"x_min":0,"x_max":0,"o":"m 813 -153 b 749 -167 796 -164 769 -167 b 672 -106 700 -167 672 -144 b 835 0 672 -58 708 -24 l 833 0 l 833 185 l 340 185 l 340 372 l 718 372 l 718 546 l 340 546 l 340 732 l 815 732 l 815 917 l 101 917 l 101 0 l 617 0 b 507 -144 547 -31 507 -78 b 700 -299 507 -249 590 -299 b 844 -267 758 -299 807 -290 z "},"F":{"ha":850,"x_min":0,"x_max":0,"o":"m 814 732 l 814 917 l 101 917 l 101 0 l 340 0 l 340 353 l 718 353 l 718 538 l 340 538 l 340 732 z "},"G":{"ha":1004,"x_min":0,"x_max":0,"o":"m 493 496 l 493 335 l 721 335 l 721 321 b 532 169 721 218 640 169 b 307 458 383 169 307 263 b 525 743 307 647 386 743 b 701 608 613 743 678 701 l 922 696 b 518 931 849 861 726 931 b 61 457 236 931 61 753 b 488 -14 61 153 240 -14 b 750 108 614 -14 700 31 l 757 0 l 924 0 l 924 496 z "},"Ğ":{"ha":1004,"x_min":0,"x_max":0,"o":"m 510 993 b 744 1219 656 993 744 1079 l 592 1219 b 510 1125 592 1163 561 1125 b 428 1219 458 1125 428 1163 l 275 1219 b 510 993 275 1079 364 993 z m 493 496 l 493 335 l 721 335 l 721 321 b 532 169 721 218 640 169 b 307 458 383 169 307 263 b 525 743 307 647 386 743 b 701 608 613 743 678 701 l 922 696 b 518 931 849 861 726 931 b 61 457 236 931 61 753 b 488 -14 61 153 240 -14 b 750 108 614 -14 700 31 l 757 0 l 924 0 l 924 496 z "},"H":{"ha":1031,"x_min":0,"x_max":0,"o":"m 690 917 l 690 554 l 340 554 l 340 917 l 101 917 l 101 0 l 340 0 l 340 369 l 690 369 l 690 0 l 929 0 l 929 917 z "},"I":{"ha":442,"x_min":0,"x_max":0,"o":"m 340 917 l 101 917 l 101 0 l 340 0 z "},"Ĳ":{"ha":1304,"x_min":0,"x_max":0,"o":"m 340 917 l 101 917 l 101 0 l 340 0 z m 1218 917 l 979 917 l 979 378 b 843 174 979 239 943 174 b 728 404 742 174 704 236 l 492 363 b 832 -14 451 142 558 -14 b 1218 353 1078 -14 1218 121 z "},"Í":{"ha":442,"x_min":0,"x_max":0,"o":"m 197 1225 l 121 1004 l 293 1004 l 421 1225 z m 340 917 l 101 917 l 101 0 l 340 0 z "},"Î":{"ha":442,"x_min":0,"x_max":0,"o":"m 489 999 l 335 1231 l 107 1231 l -47 999 l 128 999 l 221 1121 l 314 999 z m 340 917 l 101 917 l 101 0 l 340 0 z "},"Ï":{"ha":442,"x_min":0,"x_max":0,"o":"m 78 1208 b -36 1101 7 1208 -36 1168 b 78 994 -36 1035 7 994 b 194 1101 150 994 194 1035 b 78 1208 194 1168 150 1208 z m 361 1208 b 247 1101 290 1208 247 1168 b 361 994 247 1035 290 994 b 478 1101 433 994 478 1035 b 361 1208 478 1168 433 1208 z m 340 917 l 101 917 l 101 0 l 340 0 z "},"İ":{"ha":442,"x_min":0,"x_max":0,"o":"m 221 1225 b 94 1114 139 1225 94 1186 b 221 1001 94 1040 139 1001 b 350 1114 306 1001 350 1040 b 221 1225 350 1186 306 1225 z m 340 917 l 101 917 l 101 0 l 340 0 z "},"Ì":{"ha":442,"x_min":0,"x_max":0,"o":"m 222 1225 l -1 1225 l 126 1004 l 299 1004 z m 340 917 l 101 917 l 101 0 l 340 0 z "},"Ī":{"ha":442,"x_min":0,"x_max":0,"o":"m 417 1158 l 24 1158 l 24 1013 l 417 1013 z m 340 917 l 101 917 l 101 0 l 340 0 z "},"Į":{"ha":442,"x_min":0,"x_max":0,"o":"m 326 -150 b 260 -165 308 -161 286 -165 b 186 -104 213 -165 186 -143 b 340 0 186 -62 221 -26 l 340 917 l 101 917 l 101 0 l 117 0 b 22 -144 57 -33 22 -82 b 214 -299 22 -249 106 -299 b 360 -265 276 -299 321 -290 z "},"J":{"ha":863,"x_min":0,"x_max":0,"o":"m 776 917 l 538 917 l 538 378 b 401 174 538 239 501 174 b 286 404 300 174 263 236 l 50 363 b 390 -14 10 142 117 -14 b 776 353 636 -14 776 121 z "},"K":{"ha":963,"x_min":0,"x_max":0,"o":"m 679 0 l 950 0 l 622 544 l 933 917 l 668 917 l 340 510 l 340 917 l 101 917 l 101 0 l 340 0 l 340 258 l 451 393 z "},"L":{"ha":836,"x_min":0,"x_max":0,"o":"m 340 185 l 340 917 l 101 917 l 101 0 l 800 0 l 800 185 z "},"Ĺ":{"ha":836,"x_min":0,"x_max":0,"o":"m 421 1225 l 197 1225 l 121 1004 l 293 1004 z m 340 185 l 340 917 l 101 917 l 101 0 l 800 0 l 800 185 z "},"Ľ":{"ha":836,"x_min":0,"x_max":0,"o":"m 692 974 l 490 974 l 457 642 l 608 642 z m 340 185 l 340 917 l 101 917 l 101 0 l 800 0 l 800 185 z "},"Ŀ":{"ha":894,"x_min":0,"x_max":0,"o":"m 340 917 l 101 917 l 101 0 l 800 0 l 800 185 l 340 185 z m 733 619 b 594 493 647 619 594 572 b 733 368 594 415 647 368 b 872 493 819 368 872 415 b 733 619 872 572 819 619 z "},"Ł":{"ha":894,"x_min":0,"x_max":0,"o":"m 399 185 l 399 418 l 635 531 l 635 704 l 399 592 l 399 917 l 160 917 l 160 478 l 7 404 l 7 231 l 160 304 l 160 0 l 858 0 l 858 185 z "}}}
